<svg xmlns="http://www.w3.org/2000/svg" xmlns:xlink="http://www.w3.org/1999/xlink" fill="#00aee7" version="1.1" id="Vrstva_1" x="0px" y="0px" width="256px" height="256px" viewBox="-116 -116 256 256" enable-background="new -116 -116 256 256" xml:space="preserve">
<g>
	<path d="M12,140c-4.7,0-9.347-0.255-13.917-0.751c-0.207-0.017-0.411-0.04-0.614-0.068C-66.296,131.945-116,77.669-116,12   c0-4.708,0.255-9.357,0.753-13.936c0.016-0.194,0.037-0.386,0.064-0.577c4.947-43.638,31.927-80.696,69.511-99.745   c0.5-0.306,1.028-0.569,1.579-0.786C-27.146-111.339-8.104-116,12-116c49.847,0,93.129,28.64,114.257,70.328   c0.306,0.5,0.569,1.028,0.787,1.579C135.338-27.146,140-8.104,140,12c0,20.126-4.67,39.184-12.982,56.144   c-0.203,0.507-0.446,0.993-0.725,1.457c-14.671,28.995-40.058,51.686-70.917,62.834c-0.461,0.204-0.94,0.375-1.435,0.509   C40.798,137.514,26.682,140,12,140z M9.068,119.643c0.976,0.027,1.95,0.04,2.932,0.04c10.085,0,19.85-1.393,29.114-3.998V90.568   c0-20.052,16.313-36.364,36.364-36.364h33.588c5.546-12.966,8.616-27.232,8.616-42.204c0-14.975-3.073-29.247-8.621-42.216h-7.401   c-8.836,0-16.023,7.193-16.023,16.035c0,20.038-16.313,36.341-36.364,36.341c-20.037,0-36.34-16.303-36.34-36.341   c0-8.842-7.188-16.035-16.023-16.035h-6.545c-23.654,0-42.897-19.239-42.897-42.886v-2.517   C-71.807-60.393-87.33-37.621-93.155-11.25h13.496c20.044,0,36.352,16.303,36.352,36.34v13.091c0,8.835,7.188,16.022,16.023,16.022   c20.044,0,36.352,16.313,36.352,36.364V119.643z M-95.644,9.068c-0.026,0.976-0.039,1.95-0.039,2.932   c0,51.396,36.195,94.498,84.433,105.156V90.568c0-8.848-7.193-16.047-16.035-16.047c-20.038,0-36.341-16.302-36.341-36.34V25.091   c0-8.835-7.193-16.023-16.035-16.023H-95.644z M77.479,74.521c-8.849,0-16.047,7.199-16.047,16.047v17.083   c15.198-7.886,28.295-19.294,38.195-33.13H77.479z M-30.216-87.062v13.959c0,12.444,10.129,22.568,22.58,22.568h6.545   c20.038,0,36.341,16.308,36.341,36.352c0,8.835,7.188,16.023,16.022,16.023c8.849,0,16.047-7.188,16.047-16.023   c0-18.729,14.232-34.196,32.447-36.145C80.229-77.758,48.168-95.683,12-95.683C-2.975-95.683-17.247-92.609-30.216-87.062z"/>
</g>
</svg>
